#N canvas 42 22 1155 744 12;
#X obj 154 523 osc~ 245;
#X floatatom 492 42 5 0 0 0 - - -;
#X obj 324 188 line~;
#X obj 468 120 * 0.5;
#X obj 528 123 * 2;
#X obj 382 185 line~;
#X obj 432 185 line~;
#X obj 490 182 line~;
#X obj 421 115 * 3;
#X obj 576 124 * 4;
#X obj 574 191 line~;
#X obj 232 522 osc~ 245;
#X obj 310 517 osc~ 245;
#X obj 388 516 osc~ 245;
#X obj 474 516 osc~ 245;
#X obj 1174 512 vd~ babyl;
#X obj 1295 509 vd~ babyr;
#X obj 962 833 dac~;
#X obj 878 633 *~ 0.5;
#X obj 1024 658 *~ 0.5;
#X obj 613 -138 loadbang;
#X obj 1226 391 osc~ 0.2;
#X obj 1377 393 osc~ 0.1;
#X obj 1295 564 *~ 0.6;
#X obj 499 536 *~ 0.7;
#X obj 419 547 *~ 0.5;
#X obj 124 577 *~ 0.2;
#X obj 228 560 *~ 0.4;
#X obj 321 554 *~ 0.2;
#X obj 1275 462 +~ 1000;
#X obj 1173 455 +~ 10000;
#X obj 395 -137 bng 15 250 50 0 empty empty empty 17 7 0 10 -262144
-1 -1;
#X floatatom 624 61 5 0 0 0 - - -;
#X obj 631 -50 bng 15 250 50 0 empty empty empty 17 7 0 10 -262144
-1 -1;
#X obj 635 -24 random 25;
#X floatatom 703 67 5 0 0 0 - - -;
#X obj 719 -43 bng 15 250 50 0 empty empty empty 17 7 0 10 -262144
-1 -1;
#X floatatom 798 62 5 0 0 0 - - -;
#X obj 814 -48 bng 15 250 50 0 empty empty empty 17 7 0 10 -262144
-1 -1;
#X floatatom 879 67 5 0 0 0 - - -;
#X obj 895 -43 bng 15 250 50 0 empty empty empty 17 7 0 10 -262144
-1 -1;
#X floatatom 989 70 5 0 0 0 - - -;
#X obj 1005 -40 bng 15 250 50 0 empty empty empty 17 7 0 10 -262144
-1 -1;
#X obj 1000 -15 random 25;
#X obj 739 206 osc~;
#X obj 752 136 random 10;
#X obj 750 162 * 0.01;
#X obj 818 204 osc~;
#X obj 831 134 random 10;
#X obj 829 160 * 0.01;
#X obj 898 201 osc~;
#X obj 911 131 random 10;
#X obj 909 157 * 0.01;
#X obj 987 200 osc~;
#X obj 1000 130 random 10;
#X obj 998 156 * 0.01;
#X obj 1077 198 osc~;
#X obj 1090 128 random 10;
#X obj 1088 154 * 0.01;
#X obj 911 96 bng 15 250 50 0 empty empty empty 17 7 0 10 -262144 -1
-1;
#X obj 85 651 *~;
#X obj 143 649 *~;
#X obj 205 645 *~;
#X obj 264 646 *~;
#X obj 332 644 *~;
#X obj 391 646 *~;
#X obj 444 648 *~;
#X obj 504 646 *~;
#X obj 560 648 *~;
#X obj 618 647 *~;
#X obj 1168 423 *~ 5;
#X obj 1275 429 *~ 5;
#X obj 731 253 *~ 0.5;
#X obj 810 251 *~ 0.5;
#X obj 890 248 *~ 0.5;
#X obj 976 240 *~ 0.5;
#X obj 1194 340 *~ 0.5;
#X obj 1181 199 osc~;
#X obj 1194 129 random 10;
#X obj 1192 155 * 0.01;
#X obj 1260 197 osc~;
#X obj 1273 127 random 10;
#X obj 1271 153 * 0.01;
#X obj 1340 194 osc~;
#X obj 1353 124 random 10;
#X obj 1351 150 * 0.01;
#X obj 1429 193 osc~;
#X obj 1442 123 random 10;
#X obj 1440 149 * 0.01;
#X obj 1519 191 osc~;
#X obj 1532 121 random 10;
#X obj 1530 147 * 0.01;
#X obj 1353 89 bng 15 250 50 0 empty empty empty 17 7 0 10 -262144
-1 -1;
#X obj 1298 341 *~ 0.5;
#X obj 1252 244 *~ 0.5;
#X obj 1332 241 *~ 0.5;
#X obj 1418 233 *~ 0.5;
#X obj 1511 238 *~ 0.5;
#X obj 485 14 + 60;
#X obj 1185 573 *~ 0.6;
#X obj -783 469 *~;
#X obj 1172 15 * 0.01;
#X obj 1258 16 * 0.01;
#X floatatom 1176 46 5 0 0 0 - - -;
#X floatatom 1282 72 5 0 0 0 - - -;
#X obj 1245 -66 bng 15 250 50 0 empty empty empty 17 7 0 10 -262144
-1 -1;
#X obj 1192 -13 + 1;
#X obj 1261 -11 + 1;
#X obj 1181 -47 random 30;
#X obj 1260 -37 random 30;
#X obj 626 127 * 3;
#X obj 132 962 delwrite~ babyl 2000;
#X obj 472 962 delwrite~ babyr 2000;
#X obj 243 918 *~;
#X obj 528 925 *~;
#X obj 672 919 line~;
#X msg 747 868 0 \, 1 2000;
#X msg 310 915 0 \, 1 2000;
#X obj 323 951 line~;
#X obj 791 638 r load;
#X obj 722 -102 s load;
#X obj 881 793 *~;
#X obj 1047 780 *~;
#X obj 1132 774 line~;
#X msg 1207 723 0 \, 0.5 2000;
#X obj 627 20 * 0.1;
#X obj 706 26 * 0.1;
#X obj 801 21 * 0.1;
#X obj 882 26 * 0.1;
#X obj 992 29 * 0.1;
#X obj 478 -27 random 500;
#X obj 714 -18 random 30;
#X obj 809 -23 random 40;
#X obj 891 -18 random 50;
#X connect 0 0 26 0;
#X connect 1 0 3 0;
#X connect 1 0 4 0;
#X connect 1 0 8 0;
#X connect 1 0 9 0;
#X connect 1 0 110 1;
#X connect 2 0 0 0;
#X connect 3 0 5 0;
#X connect 4 0 6 0;
#X connect 5 0 11 0;
#X connect 6 0 12 0;
#X connect 7 0 13 0;
#X connect 8 0 2 0;
#X connect 9 0 7 0;
#X connect 10 0 14 0;
#X connect 11 0 27 0;
#X connect 12 0 28 0;
#X connect 13 0 25 0;
#X connect 14 0 24 0;
#X connect 15 0 99 0;
#X connect 16 0 23 0;
#X connect 18 0 17 0;
#X connect 19 0 17 1;
#X connect 20 0 31 0;
#X connect 21 0 70 0;
#X connect 22 0 71 0;
#X connect 23 0 19 0;
#X connect 23 0 114 0;
#X connect 24 0 68 0;
#X connect 24 0 69 0;
#X connect 25 0 66 0;
#X connect 25 0 67 0;
#X connect 26 0 60 0;
#X connect 26 0 61 0;
#X connect 27 0 62 0;
#X connect 27 0 63 0;
#X connect 28 0 64 0;
#X connect 28 0 65 0;
#X connect 29 0 16 0;
#X connect 30 0 15 0;
#X connect 31 0 33 0;
#X connect 31 0 36 0;
#X connect 31 0 38 0;
#X connect 31 0 40 0;
#X connect 31 0 42 0;
#X connect 31 0 59 0;
#X connect 31 0 120 0;
#X connect 31 0 130 0;
#X connect 32 0 8 1;
#X connect 33 0 34 0;
#X connect 34 0 125 0;
#X connect 35 0 3 1;
#X connect 36 0 131 0;
#X connect 37 0 4 1;
#X connect 38 0 132 0;
#X connect 39 0 9 1;
#X connect 40 0 133 0;
#X connect 41 0 110 1;
#X connect 42 0 43 0;
#X connect 43 0 129 0;
#X connect 44 0 72 0;
#X connect 45 0 46 0;
#X connect 46 0 44 0;
#X connect 47 0 73 0;
#X connect 48 0 49 0;
#X connect 49 0 47 0;
#X connect 50 0 74 0;
#X connect 51 0 52 0;
#X connect 52 0 50 0;
#X connect 53 0 75 0;
#X connect 54 0 55 0;
#X connect 55 0 53 0;
#X connect 56 0 76 0;
#X connect 57 0 58 0;
#X connect 58 0 56 0;
#X connect 59 0 45 0;
#X connect 59 0 48 0;
#X connect 59 0 51 0;
#X connect 59 0 54 0;
#X connect 59 0 57 0;
#X connect 59 0 92 0;
#X connect 60 0 113 0;
#X connect 60 0 121 0;
#X connect 61 0 114 0;
#X connect 61 0 122 0;
#X connect 62 0 113 0;
#X connect 62 0 121 0;
#X connect 63 0 114 0;
#X connect 63 0 122 0;
#X connect 64 0 113 0;
#X connect 64 0 121 0;
#X connect 65 0 114 0;
#X connect 65 0 122 0;
#X connect 66 0 113 0;
#X connect 66 0 121 0;
#X connect 67 0 114 0;
#X connect 67 0 122 0;
#X connect 68 0 113 0;
#X connect 68 0 121 0;
#X connect 69 0 114 0;
#X connect 69 0 122 0;
#X connect 70 0 30 0;
#X connect 71 0 29 0;
#X connect 72 0 61 1;
#X connect 73 0 63 1;
#X connect 74 0 65 1;
#X connect 75 0 67 1;
#X connect 76 0 69 1;
#X connect 77 0 93 0;
#X connect 78 0 79 0;
#X connect 79 0 77 0;
#X connect 80 0 94 0;
#X connect 81 0 82 0;
#X connect 82 0 80 0;
#X connect 83 0 95 0;
#X connect 84 0 85 0;
#X connect 85 0 83 0;
#X connect 86 0 96 0;
#X connect 87 0 88 0;
#X connect 88 0 86 0;
#X connect 89 0 97 0;
#X connect 90 0 91 0;
#X connect 91 0 89 0;
#X connect 92 0 78 0;
#X connect 92 0 81 0;
#X connect 92 0 84 0;
#X connect 92 0 87 0;
#X connect 92 0 90 0;
#X connect 93 0 60 1;
#X connect 94 0 62 1;
#X connect 95 0 64 1;
#X connect 96 0 66 1;
#X connect 97 0 68 1;
#X connect 98 0 1 0;
#X connect 99 0 18 0;
#X connect 99 0 113 0;
#X connect 101 0 103 0;
#X connect 102 0 104 0;
#X connect 103 0 21 0;
#X connect 104 0 22 0;
#X connect 105 0 108 0;
#X connect 105 0 109 0;
#X connect 106 0 101 0;
#X connect 107 0 102 0;
#X connect 108 0 106 0;
#X connect 109 0 107 0;
#X connect 110 0 10 0;
#X connect 113 0 111 0;
#X connect 115 0 114 1;
#X connect 116 0 115 0;
#X connect 117 0 118 0;
#X connect 118 0 113 1;
#X connect 118 0 112 0;
#X connect 119 0 117 0;
#X connect 119 0 116 0;
#X connect 119 0 124 0;
#X connect 121 0 17 0;
#X connect 122 0 17 1;
#X connect 123 0 122 1;
#X connect 123 0 121 1;
#X connect 124 0 123 0;
#X connect 125 0 32 0;
#X connect 126 0 35 0;
#X connect 127 0 37 0;
#X connect 128 0 39 0;
#X connect 129 0 41 0;
#X connect 130 0 98 0;
#X connect 131 0 126 0;
#X connect 132 0 127 0;
#X connect 133 0 128 0;
